<mxfile host="app.diagrams.net" modified="2021-01-04T07:21:04.341Z" agent="5.0 (Windows NT 10.0; Win64; x64) AppleWebKit/537.36 (KHTML, like Gecko) Chrome/87.0.4280.88 Safari/537.36" etag="BpysMeuFAjPfxYXSqJvA" version="14.1.8" type="github">
  <diagram id="HovUr31vIj6W2szHSGUr" name="Page-1">
    <mxGraphModel dx="2586" dy="1886" grid="1" gridSize="10" guides="1" tooltips="1" connect="1" arrows="1" fold="1" page="1" pageScale="1" pageWidth="850" pageHeight="1100" math="0" shadow="0">
      <root>
        <mxCell id="0" />
        <mxCell id="1" parent="0" />
        <mxCell id="22ynst1UL7vFinpxPaT7-32" value="" style="rounded=0;whiteSpace=wrap;html=1;strokeColor=#000000;fillColor=#ffffff;fontSize=19;" vertex="1" parent="1">
          <mxGeometry x="-55.5" y="-416" width="223.5" height="170" as="geometry" />
        </mxCell>
        <mxCell id="WV4xulzHT5Ah9CgMV08h-6" style="edgeStyle=orthogonalEdgeStyle;rounded=0;orthogonalLoop=1;jettySize=auto;html=1;exitX=1;exitY=0.5;exitDx=0;exitDy=0;exitPerimeter=0;entryX=0.114;entryY=0.464;entryDx=0;entryDy=0;entryPerimeter=0;fillColor=#d80073;strokeColor=#A50040;strokeWidth=3;" parent="1" source="WV4xulzHT5Ah9CgMV08h-1" target="WV4xulzHT5Ah9CgMV08h-4" edge="1">
          <mxGeometry relative="1" as="geometry">
            <Array as="points">
              <mxPoint x="-10" y="110" />
              <mxPoint x="-10" y="90" />
              <mxPoint x="260" y="90" />
            </Array>
          </mxGeometry>
        </mxCell>
        <mxCell id="WV4xulzHT5Ah9CgMV08h-7" style="edgeStyle=orthogonalEdgeStyle;rounded=0;orthogonalLoop=1;jettySize=auto;html=1;exitX=0.855;exitY=0.8555;exitDx=0;exitDy=0;exitPerimeter=0;entryX=0.314;entryY=0.59;entryDx=0;entryDy=0;entryPerimeter=0;strokeWidth=3;fillColor=#a20025;strokeColor=#6F0000;" parent="1" source="WV4xulzHT5Ah9CgMV08h-1" target="WV4xulzHT5Ah9CgMV08h-4" edge="1">
          <mxGeometry relative="1" as="geometry">
            <Array as="points">
              <mxPoint x="-17" y="145" />
            </Array>
          </mxGeometry>
        </mxCell>
        <mxCell id="WV4xulzHT5Ah9CgMV08h-8" style="edgeStyle=orthogonalEdgeStyle;rounded=0;orthogonalLoop=1;jettySize=auto;html=1;exitX=0.5;exitY=1;exitDx=0;exitDy=0;exitPerimeter=0;entryX=0.486;entryY=0.75;entryDx=0;entryDy=0;entryPerimeter=0;strokeWidth=3;fillColor=#008a00;strokeColor=#005700;" parent="1" source="WV4xulzHT5Ah9CgMV08h-1" target="WV4xulzHT5Ah9CgMV08h-4" edge="1">
          <mxGeometry relative="1" as="geometry">
            <Array as="points">
              <mxPoint x="-60" y="205" />
              <mxPoint x="390" y="205" />
            </Array>
          </mxGeometry>
        </mxCell>
        <mxCell id="WV4xulzHT5Ah9CgMV08h-9" style="edgeStyle=orthogonalEdgeStyle;rounded=0;orthogonalLoop=1;jettySize=auto;html=1;exitX=0.5;exitY=0;exitDx=0;exitDy=0;exitPerimeter=0;entryX=0.314;entryY=0.214;entryDx=0;entryDy=0;entryPerimeter=0;strokeWidth=3;fillColor=#6a00ff;strokeColor=#3700CC;" parent="1" source="WV4xulzHT5Ah9CgMV08h-1" target="WV4xulzHT5Ah9CgMV08h-4" edge="1">
          <mxGeometry relative="1" as="geometry">
            <Array as="points">
              <mxPoint x="-60" y="20" />
              <mxPoint x="330" y="20" />
            </Array>
          </mxGeometry>
        </mxCell>
        <mxCell id="WV4xulzHT5Ah9CgMV08h-11" style="edgeStyle=orthogonalEdgeStyle;rounded=0;orthogonalLoop=1;jettySize=auto;html=1;exitX=0;exitY=0.5;exitDx=0;exitDy=0;exitPerimeter=0;entryX=0;entryY=0.5;entryDx=0;entryDy=0;entryPerimeter=0;strokeWidth=4;fillColor=#6a00ff;strokeColor=#3700CC;endArrow=none;endFill=0;" parent="1" source="WV4xulzHT5Ah9CgMV08h-1" target="WV4xulzHT5Ah9CgMV08h-10" edge="1">
          <mxGeometry relative="1" as="geometry">
            <Array as="points">
              <mxPoint x="-180" y="120" />
              <mxPoint x="-180" y="-220" />
            </Array>
          </mxGeometry>
        </mxCell>
        <mxCell id="WV4xulzHT5Ah9CgMV08h-1" value="" style="points=[[0.5,0,0],[1,0.5,0],[0.5,1,0],[0,0.5,0],[0.145,0.145,0],[0.8555,0.145,0],[0.855,0.8555,0],[0.145,0.855,0]];verticalLabelPosition=bottom;html=1;verticalAlign=top;align=center;pointerEvents=1;shape=mxgraph.cisco19.rect;prIcon=router;fillColor=#FAFAFA;strokeColor=#005073;" parent="1" vertex="1">
          <mxGeometry x="-120" y="55" width="120" height="130" as="geometry" />
        </mxCell>
        <mxCell id="WV4xulzHT5Ah9CgMV08h-14" style="edgeStyle=orthogonalEdgeStyle;rounded=0;orthogonalLoop=1;jettySize=auto;html=1;exitX=0.145;exitY=0.855;exitDx=0;exitDy=0;exitPerimeter=0;entryX=0.8;entryY=0.8;entryDx=0;entryDy=0;entryPerimeter=0;fillColor=#a20025;strokeColor=#6F0000;strokeWidth=3;" parent="1" source="WV4xulzHT5Ah9CgMV08h-2" target="WV4xulzHT5Ah9CgMV08h-4" edge="1">
          <mxGeometry relative="1" as="geometry">
            <Array as="points">
              <mxPoint x="812" y="160" />
              <mxPoint x="500" y="160" />
            </Array>
          </mxGeometry>
        </mxCell>
        <mxCell id="WV4xulzHT5Ah9CgMV08h-15" style="edgeStyle=orthogonalEdgeStyle;rounded=0;orthogonalLoop=1;jettySize=auto;html=1;exitX=0;exitY=0.5;exitDx=0;exitDy=0;exitPerimeter=0;entryX=0.875;entryY=0.5;entryDx=0;entryDy=0;entryPerimeter=0;endArrow=none;endFill=0;fillColor=#d80073;strokeColor=#A50040;strokeWidth=3;" parent="1" source="WV4xulzHT5Ah9CgMV08h-2" target="WV4xulzHT5Ah9CgMV08h-4" edge="1">
          <mxGeometry relative="1" as="geometry">
            <Array as="points">
              <mxPoint x="790" y="120" />
            </Array>
          </mxGeometry>
        </mxCell>
        <mxCell id="WV4xulzHT5Ah9CgMV08h-16" style="edgeStyle=orthogonalEdgeStyle;rounded=0;orthogonalLoop=1;jettySize=auto;html=1;exitX=0.145;exitY=0.145;exitDx=0;exitDy=0;exitPerimeter=0;entryX=0.88;entryY=0.25;entryDx=0;entryDy=0;entryPerimeter=0;endArrow=none;endFill=0;fillColor=#6a00ff;strokeWidth=3;strokeColor=#005700;" parent="1" source="WV4xulzHT5Ah9CgMV08h-2" target="WV4xulzHT5Ah9CgMV08h-4" edge="1">
          <mxGeometry relative="1" as="geometry">
            <Array as="points">
              <mxPoint x="812" y="50" />
            </Array>
          </mxGeometry>
        </mxCell>
        <mxCell id="WV4xulzHT5Ah9CgMV08h-18" style="edgeStyle=orthogonalEdgeStyle;rounded=0;orthogonalLoop=1;jettySize=auto;html=1;exitX=0.145;exitY=0.855;exitDx=0;exitDy=0;exitPerimeter=0;entryX=0.8;entryY=0.8;entryDx=0;entryDy=0;entryPerimeter=0;endArrow=none;endFill=0;fillColor=#008a00;strokeWidth=3;strokeColor=#3700CC;" parent="1" source="WV4xulzHT5Ah9CgMV08h-2" target="WV4xulzHT5Ah9CgMV08h-4" edge="1">
          <mxGeometry relative="1" as="geometry">
            <Array as="points">
              <mxPoint x="812" y="204" />
            </Array>
          </mxGeometry>
        </mxCell>
        <mxCell id="WV4xulzHT5Ah9CgMV08h-2" value="" style="points=[[0.5,0,0],[1,0.5,0],[0.5,1,0],[0,0.5,0],[0.145,0.145,0],[0.8555,0.145,0],[0.855,0.8555,0],[0.145,0.855,0]];verticalLabelPosition=bottom;html=1;verticalAlign=top;aspect=fixed;align=center;pointerEvents=1;shape=mxgraph.cisco19.rect;prIcon=router;fillColor=#FAFAFA;strokeColor=#005073;" parent="1" vertex="1">
          <mxGeometry x="790" y="50" width="150" height="150" as="geometry" />
        </mxCell>
        <mxCell id="ZMAOsJ2BBYR87SX-bPeo-2" style="edgeStyle=orthogonalEdgeStyle;rounded=0;orthogonalLoop=1;jettySize=auto;html=1;exitX=1;exitY=0.5;exitDx=0;exitDy=0;exitPerimeter=0;entryX=0.078;entryY=0.567;entryDx=0;entryDy=0;entryPerimeter=0;endArrow=none;endFill=0;strokeWidth=4;fillColor=#6a00ff;strokeColor=#3700CC;" parent="1" source="WV4xulzHT5Ah9CgMV08h-3" target="WV4xulzHT5Ah9CgMV08h-20" edge="1">
          <mxGeometry relative="1" as="geometry" />
        </mxCell>
        <mxCell id="WV4xulzHT5Ah9CgMV08h-3" value="" style="points=[[0.5,0,0],[1,0.5,0],[0.5,1,0],[0,0.5,0],[0.145,0.145,0],[0.8555,0.145,0],[0.855,0.8555,0],[0.145,0.855,0]];verticalLabelPosition=bottom;html=1;verticalAlign=top;align=center;pointerEvents=1;shape=mxgraph.cisco19.rect;prIcon=router;fillColor=#FAFAFA;strokeColor=#005073;" parent="1" vertex="1">
          <mxGeometry x="300" y="425" width="180" height="190" as="geometry" />
        </mxCell>
        <mxCell id="WV4xulzHT5Ah9CgMV08h-4" value="" style="ellipse;shape=cloud;whiteSpace=wrap;html=1;" parent="1" vertex="1">
          <mxGeometry x="220" y="-20" width="350" height="280" as="geometry" />
        </mxCell>
        <mxCell id="WV4xulzHT5Ah9CgMV08h-13" style="edgeStyle=orthogonalEdgeStyle;rounded=0;orthogonalLoop=1;jettySize=auto;html=1;exitX=1;exitY=0.5;exitDx=0;exitDy=0;exitPerimeter=0;entryX=0.5;entryY=0;entryDx=0;entryDy=0;entryPerimeter=0;strokeWidth=4;fillColor=#6a00ff;strokeColor=#3700CC;endArrow=none;endFill=0;" parent="1" source="WV4xulzHT5Ah9CgMV08h-10" target="WV4xulzHT5Ah9CgMV08h-2" edge="1">
          <mxGeometry relative="1" as="geometry" />
        </mxCell>
        <mxCell id="WV4xulzHT5Ah9CgMV08h-10" value="" style="points=[[0.015,0.015,0],[0.985,0.015,0],[0.985,0.985,0],[0.015,0.985,0],[0.25,0,0],[0.5,0,0],[0.75,0,0],[1,0.25,0],[1,0.5,0],[1,0.75,0],[0.75,1,0],[0.5,1,0],[0.25,1,0],[0,0.75,0],[0,0.5,0],[0,0.25,0]];verticalLabelPosition=bottom;html=1;verticalAlign=top;aspect=fixed;align=center;pointerEvents=1;shape=mxgraph.cisco19.rect;prIcon=l2_switch;fillColor=#FAFAFA;strokeColor=#005073;" parent="1" vertex="1">
          <mxGeometry x="350" y="-300" width="160" height="160" as="geometry" />
        </mxCell>
        <mxCell id="WV4xulzHT5Ah9CgMV08h-21" style="edgeStyle=orthogonalEdgeStyle;rounded=0;orthogonalLoop=1;jettySize=auto;html=1;exitX=1;exitY=0.5;exitDx=0;exitDy=0;exitPerimeter=0;endArrow=none;endFill=0;strokeColor=#3700CC;entryX=0;entryY=0.5;entryDx=0;entryDy=0;entryPerimeter=0;strokeWidth=4;fillColor=#6a00ff;" parent="1" source="WV4xulzHT5Ah9CgMV08h-19" target="WV4xulzHT5Ah9CgMV08h-3" edge="1">
          <mxGeometry relative="1" as="geometry">
            <mxPoint x="290" y="520" as="targetPoint" />
          </mxGeometry>
        </mxCell>
        <mxCell id="WV4xulzHT5Ah9CgMV08h-22" style="edgeStyle=orthogonalEdgeStyle;rounded=0;orthogonalLoop=1;jettySize=auto;html=1;exitX=0;exitY=0.5;exitDx=0;exitDy=0;exitPerimeter=0;entryX=0.064;entryY=0.736;entryDx=0;entryDy=0;entryPerimeter=0;endArrow=none;endFill=0;strokeColor=#3700CC;strokeWidth=4;fillColor=#6a00ff;" parent="1" source="WV4xulzHT5Ah9CgMV08h-19" target="WV4xulzHT5Ah9CgMV08h-1" edge="1">
          <mxGeometry relative="1" as="geometry">
            <Array as="points">
              <mxPoint x="-180" y="520" />
              <mxPoint x="-180" y="151" />
            </Array>
          </mxGeometry>
        </mxCell>
        <mxCell id="WV4xulzHT5Ah9CgMV08h-19" value="" style="points=[[0.015,0.015,0],[0.985,0.015,0],[0.985,0.985,0],[0.015,0.985,0],[0.25,0,0],[0.5,0,0],[0.75,0,0],[1,0.25,0],[1,0.5,0],[1,0.75,0],[0.75,1,0],[0.5,1,0],[0.25,1,0],[0,0.75,0],[0,0.5,0],[0,0.25,0]];verticalLabelPosition=bottom;html=1;verticalAlign=top;aspect=fixed;align=center;pointerEvents=1;shape=mxgraph.cisco19.rect;prIcon=l2_switch;fillColor=#FAFAFA;strokeColor=#005073;" parent="1" vertex="1">
          <mxGeometry x="-90" y="449.5" width="141" height="141" as="geometry" />
        </mxCell>
        <mxCell id="ZMAOsJ2BBYR87SX-bPeo-3" style="edgeStyle=orthogonalEdgeStyle;rounded=0;orthogonalLoop=1;jettySize=auto;html=1;exitX=1;exitY=0.5;exitDx=0;exitDy=0;exitPerimeter=0;entryX=1;entryY=0.5;entryDx=0;entryDy=0;entryPerimeter=0;endArrow=none;endFill=0;strokeWidth=4;fillColor=#6a00ff;strokeColor=#3700CC;" parent="1" source="WV4xulzHT5Ah9CgMV08h-20" target="WV4xulzHT5Ah9CgMV08h-2" edge="1">
          <mxGeometry relative="1" as="geometry">
            <Array as="points">
              <mxPoint x="1040" y="511" />
              <mxPoint x="1040" y="125" />
            </Array>
          </mxGeometry>
        </mxCell>
        <mxCell id="WV4xulzHT5Ah9CgMV08h-20" value="" style="points=[[0.015,0.015,0],[0.985,0.015,0],[0.985,0.985,0],[0.015,0.985,0],[0.25,0,0],[0.5,0,0],[0.75,0,0],[1,0.25,0],[1,0.5,0],[1,0.75,0],[0.75,1,0],[0.5,1,0],[0.25,1,0],[0,0.75,0],[0,0.5,0],[0,0.25,0]];verticalLabelPosition=bottom;html=1;verticalAlign=top;aspect=fixed;align=center;pointerEvents=1;shape=mxgraph.cisco19.rect;prIcon=l2_switch;fillColor=#FAFAFA;strokeColor=#005073;" parent="1" vertex="1">
          <mxGeometry x="709" y="440" width="141" height="141" as="geometry" />
        </mxCell>
        <mxCell id="ZMAOsJ2BBYR87SX-bPeo-1" value="&lt;font style=&quot;font-size: 25px&quot;&gt;ISP Cloud&lt;/font&gt;" style="text;html=1;strokeColor=none;fillColor=none;align=center;verticalAlign=middle;whiteSpace=wrap;rounded=0;" parent="1" vertex="1">
          <mxGeometry x="340" y="100" width="140" height="70" as="geometry" />
        </mxCell>
        <mxCell id="ZMAOsJ2BBYR87SX-bPeo-11" value="" style="endArrow=none;html=1;entryX=0.31;entryY=0.8;entryDx=0;entryDy=0;entryPerimeter=0;exitX=0.145;exitY=0.145;exitDx=0;exitDy=0;exitPerimeter=0;fillColor=#008a00;strokeColor=#005700;strokeWidth=3;" parent="1" source="WV4xulzHT5Ah9CgMV08h-3" target="WV4xulzHT5Ah9CgMV08h-4" edge="1">
          <mxGeometry width="50" height="50" relative="1" as="geometry">
            <mxPoint x="210" y="380" as="sourcePoint" />
            <mxPoint x="260" y="330" as="targetPoint" />
          </mxGeometry>
        </mxCell>
        <mxCell id="ZMAOsJ2BBYR87SX-bPeo-12" value="" style="endArrow=none;html=1;entryX=0.8;entryY=0.8;entryDx=0;entryDy=0;entryPerimeter=0;exitX=0.8555;exitY=0.145;exitDx=0;exitDy=0;exitPerimeter=0;fillColor=#6a00ff;strokeColor=#3700CC;strokeWidth=3;" parent="1" source="WV4xulzHT5Ah9CgMV08h-3" target="WV4xulzHT5Ah9CgMV08h-4" edge="1">
          <mxGeometry width="50" height="50" relative="1" as="geometry">
            <mxPoint x="490" y="350" as="sourcePoint" />
            <mxPoint x="540" y="300" as="targetPoint" />
          </mxGeometry>
        </mxCell>
        <mxCell id="ZMAOsJ2BBYR87SX-bPeo-13" value="" style="endArrow=none;html=1;entryX=0.677;entryY=0.929;entryDx=0;entryDy=0;entryPerimeter=0;exitX=0.694;exitY=0.037;exitDx=0;exitDy=0;exitPerimeter=0;strokeWidth=3;fillColor=#d80073;strokeColor=#A50040;" parent="1" source="WV4xulzHT5Ah9CgMV08h-3" target="WV4xulzHT5Ah9CgMV08h-4" edge="1">
          <mxGeometry width="50" height="50" relative="1" as="geometry">
            <mxPoint x="180" y="350" as="sourcePoint" />
            <mxPoint x="230" y="300" as="targetPoint" />
          </mxGeometry>
        </mxCell>
        <mxCell id="ZMAOsJ2BBYR87SX-bPeo-14" value="" style="endArrow=none;html=1;entryX=0.55;entryY=0.95;entryDx=0;entryDy=0;entryPerimeter=0;exitX=0.5;exitY=0;exitDx=0;exitDy=0;exitPerimeter=0;strokeWidth=3;fillColor=#a20025;strokeColor=#6F0000;" parent="1" source="WV4xulzHT5Ah9CgMV08h-3" target="WV4xulzHT5Ah9CgMV08h-4" edge="1">
          <mxGeometry width="50" height="50" relative="1" as="geometry">
            <mxPoint x="360" y="350" as="sourcePoint" />
            <mxPoint x="410" y="300" as="targetPoint" />
          </mxGeometry>
        </mxCell>
        <mxCell id="ZMAOsJ2BBYR87SX-bPeo-15" value="&lt;font style=&quot;font-size: 40px&quot;&gt;CHO&lt;/font&gt;" style="text;html=1;strokeColor=none;fillColor=none;align=center;verticalAlign=middle;whiteSpace=wrap;rounded=0;" parent="1" vertex="1">
          <mxGeometry x="350" y="620" width="90" height="70" as="geometry" />
        </mxCell>
        <mxCell id="ZMAOsJ2BBYR87SX-bPeo-16" value="&lt;font style=&quot;font-size: 30px&quot;&gt;DLK&lt;/font&gt;" style="text;html=1;strokeColor=none;fillColor=none;align=center;verticalAlign=middle;whiteSpace=wrap;rounded=0;" parent="1" vertex="1">
          <mxGeometry x="820" y="210" width="100" height="40" as="geometry" />
        </mxCell>
        <mxCell id="ZMAOsJ2BBYR87SX-bPeo-17" value="&lt;font style=&quot;font-size: 25px&quot;&gt;UTR&lt;/font&gt;" style="text;html=1;strokeColor=none;fillColor=none;align=center;verticalAlign=middle;whiteSpace=wrap;rounded=0;" parent="1" vertex="1">
          <mxGeometry x="-155.5" y="196" width="79.5" height="25" as="geometry" />
        </mxCell>
        <mxCell id="ZMAOsJ2BBYR87SX-bPeo-31" value="&lt;font style=&quot;font-size: 25px&quot;&gt;Telnet&lt;/font&gt;" style="text;html=1;strokeColor=none;fillColor=none;align=center;verticalAlign=middle;whiteSpace=wrap;rounded=0;" parent="1" vertex="1">
          <mxGeometry x="-60" y="-294" width="80" height="60" as="geometry" />
        </mxCell>
        <mxCell id="22ynst1UL7vFinpxPaT7-28" style="edgeStyle=orthogonalEdgeStyle;rounded=0;orthogonalLoop=1;jettySize=auto;html=1;endArrow=none;endFill=0;fontSize=19;strokeColor=#6F0000;" edge="1" parent="1">
          <mxGeometry relative="1" as="geometry">
            <mxPoint x="144" y="-307" as="targetPoint" />
            <mxPoint x="40" y="-307" as="sourcePoint" />
          </mxGeometry>
        </mxCell>
        <mxCell id="ZMAOsJ2BBYR87SX-bPeo-32" value="&lt;font style=&quot;font-size: 25px&quot;&gt;Drik&lt;/font&gt;" style="text;html=1;strokeColor=none;fillColor=none;align=center;verticalAlign=middle;whiteSpace=wrap;rounded=0;" parent="1" vertex="1">
          <mxGeometry x="-59.5" y="-337" width="80" height="60" as="geometry" />
        </mxCell>
        <mxCell id="22ynst1UL7vFinpxPaT7-27" style="edgeStyle=orthogonalEdgeStyle;rounded=0;orthogonalLoop=1;jettySize=auto;html=1;endArrow=none;endFill=0;fontSize=19;strokeColor=#A50040;endSize=6;" edge="1" parent="1">
          <mxGeometry relative="1" as="geometry">
            <mxPoint x="148" y="-344" as="targetPoint" />
            <mxPoint x="40" y="-344" as="sourcePoint" />
          </mxGeometry>
        </mxCell>
        <mxCell id="ZMAOsJ2BBYR87SX-bPeo-33" value="&lt;font style=&quot;font-size: 25px&quot;&gt;BOL&lt;/font&gt;" style="text;html=1;strokeColor=none;fillColor=none;align=center;verticalAlign=middle;whiteSpace=wrap;rounded=0;" parent="1" vertex="1">
          <mxGeometry x="-58.5" y="-377" width="80" height="60" as="geometry" />
        </mxCell>
        <mxCell id="22ynst1UL7vFinpxPaT7-25" style="edgeStyle=orthogonalEdgeStyle;rounded=0;orthogonalLoop=1;jettySize=auto;html=1;endArrow=none;endFill=0;fontSize=19;strokeColor=#005700;endSize=6;" edge="1" parent="1" source="ZMAOsJ2BBYR87SX-bPeo-34">
          <mxGeometry relative="1" as="geometry">
            <mxPoint x="150" y="-390" as="targetPoint" />
          </mxGeometry>
        </mxCell>
        <mxCell id="ZMAOsJ2BBYR87SX-bPeo-34" value="&lt;font style=&quot;font-size: 25px&quot;&gt;AAmra&lt;/font&gt;" style="text;html=1;strokeColor=none;fillColor=none;align=center;verticalAlign=middle;whiteSpace=wrap;rounded=0;" parent="1" vertex="1">
          <mxGeometry x="-60" y="-420" width="100" height="60" as="geometry" />
        </mxCell>
        <mxCell id="ZMAOsJ2BBYR87SX-bPeo-58" value="&lt;div style=&quot;font-size: 30px&quot;&gt;&lt;font style=&quot;font-size: 30px&quot;&gt;router eigrp 1003&lt;/font&gt;&lt;/div&gt;&lt;div style=&quot;font-size: 30px&quot;&gt;&lt;font style=&quot;font-size: 30px&quot;&gt;&amp;nbsp;network 10.154.111.0 0.0.0.3&lt;/font&gt;&lt;/div&gt;&lt;div style=&quot;font-size: 30px&quot;&gt;&lt;font style=&quot;font-size: 30px&quot;&gt;&amp;nbsp;network 10.164.111.0 0.0.0.3&lt;/font&gt;&lt;/div&gt;&lt;div style=&quot;font-size: 30px&quot;&gt;&lt;font style=&quot;font-size: 30px&quot;&gt;&amp;nbsp;network 10.174.111.0 0.0.0.3&lt;/font&gt;&lt;/div&gt;&lt;div style=&quot;font-size: 30px&quot;&gt;&lt;font style=&quot;font-size: 30px&quot;&gt;&amp;nbsp;network 10.184.111.0 0.0.0.3&lt;/font&gt;&lt;/div&gt;&lt;div style=&quot;font-size: 30px&quot;&gt;&lt;font style=&quot;font-size: 30px&quot;&gt;&amp;nbsp;network 192.168.108.0&lt;/font&gt;&lt;/div&gt;&lt;div style=&quot;font-size: 30px&quot;&gt;&lt;font style=&quot;font-size: 30px&quot;&gt;&amp;nbsp;network 192.168.109.0&lt;/font&gt;&lt;/div&gt;&lt;div style=&quot;font-size: 30px&quot;&gt;&lt;font style=&quot;font-size: 30px&quot;&gt;&amp;nbsp;network 192.168.110.0&lt;/font&gt;&lt;/div&gt;&lt;div style=&quot;font-size: 30px&quot;&gt;&lt;font style=&quot;font-size: 30px&quot;&gt;&amp;nbsp;network 192.168.111.0&lt;/font&gt;&lt;/div&gt;&lt;div style=&quot;font-size: 30px&quot;&gt;&lt;font style=&quot;font-size: 30px&quot;&gt;&amp;nbsp;network 192.168.114.0&lt;/font&gt;&lt;/div&gt;&lt;div style=&quot;font-size: 30px&quot;&gt;&lt;font style=&quot;font-size: 30px&quot;&gt;&amp;nbsp;network 192.168.201.0&lt;/font&gt;&lt;/div&gt;&lt;div style=&quot;font-size: 30px&quot;&gt;&lt;font style=&quot;font-size: 30px&quot;&gt;&amp;nbsp;network 192.168.202.0&lt;/font&gt;&lt;/div&gt;" style="text;html=1;fillColor=none;align=left;verticalAlign=middle;whiteSpace=wrap;rounded=0;strokeColor=#000000;" parent="1" vertex="1">
          <mxGeometry x="-255" y="650" width="450" height="440" as="geometry" />
        </mxCell>
        <mxCell id="22ynst1UL7vFinpxPaT7-3" style="edgeStyle=orthogonalEdgeStyle;rounded=0;orthogonalLoop=1;jettySize=auto;html=1;exitX=0.5;exitY=0;exitDx=0;exitDy=0;entryX=1;entryY=0.5;entryDx=0;entryDy=0;endArrow=none;endFill=0;" edge="1" parent="1" source="22ynst1UL7vFinpxPaT7-14" target="ZMAOsJ2BBYR87SX-bPeo-72">
          <mxGeometry relative="1" as="geometry" />
        </mxCell>
        <mxCell id="ZMAOsJ2BBYR87SX-bPeo-59" value="&lt;font&gt;&lt;span style=&quot;font-size: 24px&quot;&gt;10.154.111.1/30&lt;/span&gt;&lt;br&gt;&lt;span style=&quot;font-size: 24px&quot;&gt;Tunnel 1033&lt;/span&gt;&lt;br&gt;&lt;/font&gt;" style="text;html=1;fillColor=none;align=center;verticalAlign=middle;whiteSpace=wrap;rounded=0;strokeColor=#000000;" parent="1" vertex="1">
          <mxGeometry x="85" y="420" width="180" height="60" as="geometry" />
        </mxCell>
        <mxCell id="22ynst1UL7vFinpxPaT7-5" style="edgeStyle=orthogonalEdgeStyle;rounded=0;orthogonalLoop=1;jettySize=auto;html=1;exitX=0.5;exitY=1;exitDx=0;exitDy=0;entryX=0.412;entryY=1.144;entryDx=0;entryDy=0;entryPerimeter=0;endArrow=none;endFill=0;" edge="1" parent="1" source="ZMAOsJ2BBYR87SX-bPeo-61" target="ZMAOsJ2BBYR87SX-bPeo-75">
          <mxGeometry relative="1" as="geometry" />
        </mxCell>
        <mxCell id="ZMAOsJ2BBYR87SX-bPeo-61" value="&lt;font style=&quot;font-size: 20px&quot;&gt;10.194.111.1/30&lt;br&gt;Tunnel 1039&lt;br&gt;&lt;/font&gt;" style="text;html=1;align=center;verticalAlign=middle;whiteSpace=wrap;rounded=0;strokeColor=#000000;fillColor=#ffffff;" parent="1" vertex="1">
          <mxGeometry x="120" y="544.75" width="170" height="52" as="geometry" />
        </mxCell>
        <mxCell id="ZMAOsJ2BBYR87SX-bPeo-64" value="&lt;font style=&quot;font-size: 20px&quot;&gt;&lt;span&gt;10.151.115.1/30&lt;/span&gt;&lt;br&gt;&lt;span&gt;Tunnel 1153&lt;/span&gt;&lt;br&gt;&lt;/font&gt;" style="text;html=1;fillColor=none;align=center;verticalAlign=middle;whiteSpace=wrap;rounded=0;strokeColor=#000000;" parent="1" vertex="1">
          <mxGeometry x="480" y="405" width="185.25" height="60" as="geometry" />
        </mxCell>
        <mxCell id="22ynst1UL7vFinpxPaT7-2" style="edgeStyle=orthogonalEdgeStyle;rounded=0;orthogonalLoop=1;jettySize=auto;html=1;exitX=0;exitY=0.5;exitDx=0;exitDy=0;endArrow=none;endFill=0;" edge="1" parent="1" source="ZMAOsJ2BBYR87SX-bPeo-67" target="ZMAOsJ2BBYR87SX-bPeo-64">
          <mxGeometry relative="1" as="geometry" />
        </mxCell>
        <mxCell id="ZMAOsJ2BBYR87SX-bPeo-67" value="&lt;font style=&quot;font-size: 20px&quot;&gt;&lt;span&gt;10.151.115.2/30&lt;/span&gt;&lt;br&gt;&lt;span&gt;Tunnel 1103&lt;/span&gt;&lt;br&gt;&lt;/font&gt;" style="text;html=1;fillColor=none;align=center;verticalAlign=middle;whiteSpace=wrap;rounded=0;strokeColor=#000000;" parent="1" vertex="1">
          <mxGeometry x="630" y="230" width="185.25" height="60" as="geometry" />
        </mxCell>
        <mxCell id="ZMAOsJ2BBYR87SX-bPeo-68" value="&lt;font style=&quot;font-size: 20px&quot;&gt;&lt;span&gt;10.191.115.2/30&lt;/span&gt;&lt;br&gt;&lt;span&gt;Tunnel 1109&lt;/span&gt;&lt;br&gt;&lt;/font&gt;" style="text;html=1;align=center;verticalAlign=middle;whiteSpace=wrap;rounded=0;strokeColor=#000000;fillColor=#ffffff;" parent="1" vertex="1">
          <mxGeometry x="1050" y="148.25" width="165" height="58.5" as="geometry" />
        </mxCell>
        <mxCell id="ZMAOsJ2BBYR87SX-bPeo-69" value="&lt;font&gt;&lt;span style=&quot;font-size: 20px&quot;&gt;10.195.115.1/30&lt;/span&gt;&lt;br&gt;&lt;span style=&quot;font-size: 20px&quot;&gt;Tunnel 1139&lt;/span&gt;&lt;br&gt;&lt;/font&gt;" style="text;html=1;fillColor=none;align=center;verticalAlign=middle;whiteSpace=wrap;rounded=0;strokeColor=#000000;" parent="1" vertex="1">
          <mxGeometry x="625" y="-140" width="165" height="58.5" as="geometry" />
        </mxCell>
        <mxCell id="ZMAOsJ2BBYR87SX-bPeo-70" value="&lt;font&gt;&lt;span style=&quot;font-size: 20px&quot;&gt;UTR-DRS to DLK&lt;br&gt;10.155.115.1/30&lt;/span&gt;&lt;br&gt;&lt;span style=&quot;font-size: 20px&quot;&gt;Tunnel 1033&lt;/span&gt;&lt;br&gt;&lt;/font&gt;" style="text;html=1;fillColor=none;align=center;verticalAlign=middle;whiteSpace=wrap;rounded=0;strokeColor=#000000;" parent="1" vertex="1">
          <mxGeometry x="615.12" y="-66.75" width="215" height="75.25" as="geometry" />
        </mxCell>
        <mxCell id="22ynst1UL7vFinpxPaT7-9" style="edgeStyle=orthogonalEdgeStyle;rounded=0;orthogonalLoop=1;jettySize=auto;html=1;exitX=1;exitY=0.5;exitDx=0;exitDy=0;entryX=0;entryY=0.5;entryDx=0;entryDy=0;endArrow=none;endFill=0;fontSize=19;" edge="1" parent="1" source="ZMAOsJ2BBYR87SX-bPeo-71" target="ZMAOsJ2BBYR87SX-bPeo-70">
          <mxGeometry relative="1" as="geometry" />
        </mxCell>
        <mxCell id="ZMAOsJ2BBYR87SX-bPeo-71" value="&lt;font&gt;&lt;span style=&quot;font-size: 20px&quot;&gt;UTR-DRS to DLK&lt;br&gt;10.155.115.2/30&lt;/span&gt;&lt;br&gt;&lt;span style=&quot;font-size: 20px&quot;&gt;Tunnel 1153&lt;/span&gt;&lt;br&gt;&lt;/font&gt;" style="text;html=1;fillColor=none;align=center;verticalAlign=middle;whiteSpace=wrap;rounded=0;strokeColor=#000000;" parent="1" vertex="1">
          <mxGeometry x="-76" y="-70" width="165" height="78.5" as="geometry" />
        </mxCell>
        <mxCell id="ZMAOsJ2BBYR87SX-bPeo-72" value="&lt;font&gt;&lt;span style=&quot;font-size: 24px&quot;&gt;10.154.111.2/30&lt;/span&gt;&lt;br&gt;&lt;span style=&quot;font-size: 24px&quot;&gt;Tunnel 1103&lt;/span&gt;&lt;br&gt;&lt;/font&gt;" style="text;html=1;fillColor=none;align=center;verticalAlign=middle;whiteSpace=wrap;rounded=0;strokeColor=#000000;" parent="1" vertex="1">
          <mxGeometry x="-120" y="240" width="180" height="60" as="geometry" />
        </mxCell>
        <mxCell id="ZMAOsJ2BBYR87SX-bPeo-75" value="&lt;font style=&quot;font-size: 20px&quot;&gt;10.194.111.2/30&lt;br&gt;Tunnel 1109&lt;br&gt;&lt;/font&gt;" style="text;html=1;fillColor=none;align=center;verticalAlign=middle;whiteSpace=wrap;rounded=0;strokeColor=#000000;" parent="1" vertex="1">
          <mxGeometry x="-380" y="212.5" width="170" height="52" as="geometry" />
        </mxCell>
        <mxCell id="22ynst1UL7vFinpxPaT7-6" style="edgeStyle=orthogonalEdgeStyle;rounded=0;orthogonalLoop=1;jettySize=auto;html=1;exitX=1;exitY=0.5;exitDx=0;exitDy=0;entryX=0;entryY=0.5;entryDx=0;entryDy=0;endArrow=none;endFill=0;" edge="1" parent="1" source="ZMAOsJ2BBYR87SX-bPeo-76" target="ZMAOsJ2BBYR87SX-bPeo-69">
          <mxGeometry relative="1" as="geometry" />
        </mxCell>
        <mxCell id="ZMAOsJ2BBYR87SX-bPeo-76" value="&lt;font&gt;&lt;span style=&quot;font-size: 20px&quot;&gt;10.195.115.2/30&lt;/span&gt;&lt;br&gt;&lt;span style=&quot;font-size: 20px&quot;&gt;Tunnel 1159&lt;/span&gt;&lt;br&gt;&lt;/font&gt;" style="text;html=1;fillColor=none;align=center;verticalAlign=middle;whiteSpace=wrap;rounded=0;strokeColor=#000000;" parent="1" vertex="1">
          <mxGeometry x="-90" y="-141" width="165" height="58.5" as="geometry" />
        </mxCell>
        <mxCell id="ZMAOsJ2BBYR87SX-bPeo-77" value="&lt;div style=&quot;font-size: 30px&quot;&gt;&lt;div&gt;router eigrp 1015&lt;/div&gt;&lt;div&gt;&amp;nbsp;network 10.1.115.0 0.0.0.3&lt;/div&gt;&lt;div&gt;&amp;nbsp;network 10.51.115.0 0.0.0.3&lt;/div&gt;&lt;div&gt;&amp;nbsp;network 10.101.115.0 0.0.0.3&lt;/div&gt;&lt;div&gt;&amp;nbsp;network 10.151.115.0 0.0.0.3&lt;/div&gt;&lt;div&gt;&amp;nbsp;network 10.161.115.0 0.0.0.3&lt;/div&gt;&lt;div&gt;&amp;nbsp;network 10.171.115.0 0.0.0.3&lt;/div&gt;&lt;div&gt;&amp;nbsp;network 10.191.115.0 0.0.0.3&lt;/div&gt;&lt;div&gt;&amp;nbsp;network 192.168.108.0&lt;/div&gt;&lt;div&gt;&amp;nbsp;network 192.168.109.0&lt;/div&gt;&lt;div&gt;&amp;nbsp;network 192.168.110.0&lt;/div&gt;&lt;div&gt;&amp;nbsp;network 192.168.111.0&lt;/div&gt;&lt;div&gt;&amp;nbsp;network 192.168.114.0&lt;/div&gt;&lt;div&gt;&amp;nbsp;network 192.168.201.0&lt;/div&gt;&lt;div&gt;&amp;nbsp;network 192.168.202.0&lt;/div&gt;&lt;/div&gt;" style="text;html=1;fillColor=none;align=left;verticalAlign=middle;whiteSpace=wrap;rounded=0;strokeColor=#000000;" parent="1" vertex="1">
          <mxGeometry x="482.5" y="670" width="417.5" height="550" as="geometry" />
        </mxCell>
        <mxCell id="ZMAOsJ2BBYR87SX-bPeo-78" value="&lt;div style=&quot;font-size: 30px&quot;&gt;&lt;div&gt;router eigrp 1015&lt;/div&gt;&lt;div&gt;&amp;nbsp;network 10.151.115.0 0.0.0.3&lt;/div&gt;&lt;div&gt;&amp;nbsp;network 10.161.115.0 0.0.0.3&lt;/div&gt;&lt;div&gt;&amp;nbsp;network 10.171.115.0 0.0.0.3&lt;/div&gt;&lt;div&gt;&amp;nbsp;network 10.191.115.0 0.0.0.3&lt;/div&gt;&lt;div&gt;&amp;nbsp;network 192.165.1.0 0.0.0.3&lt;/div&gt;&lt;div&gt;&amp;nbsp;network 192.168.101.0&lt;/div&gt;&lt;div&gt;&amp;nbsp;network 192.168.102.0&lt;/div&gt;&lt;div&gt;&amp;nbsp;network 192.168.115.0&lt;/div&gt;&lt;div&gt;&amp;nbsp;network 192.168.118.0&lt;/div&gt;&lt;div&gt;&amp;nbsp;network 192.168.129.0&lt;/div&gt;&lt;div&gt;&amp;nbsp;network 192.168.137.0&lt;/div&gt;&lt;/div&gt;" style="text;html=1;fillColor=none;align=left;verticalAlign=middle;whiteSpace=wrap;rounded=0;strokeColor=#000000;" parent="1" vertex="1">
          <mxGeometry x="1230" y="120" width="420" height="440" as="geometry" />
        </mxCell>
        <mxCell id="ZMAOsJ2BBYR87SX-bPeo-79" value="&lt;div style=&quot;font-size: 30px&quot;&gt;&lt;div&gt;router eigrp 1503&lt;/div&gt;&lt;div&gt;&amp;nbsp;network 10.155.115.0 0.0.0.3&lt;/div&gt;&lt;div&gt;&amp;nbsp;network 10.165.115.0 0.0.0.3&lt;/div&gt;&lt;div&gt;&amp;nbsp;network 10.175.115.0 0.0.0.3&lt;/div&gt;&lt;div&gt;&amp;nbsp;network 10.185.115.0 0.0.0.3&lt;/div&gt;&lt;div&gt;&amp;nbsp;network 10.195.115.0 0.0.0.3&lt;/div&gt;&lt;div&gt;&amp;nbsp;network 192.168.102.0&lt;/div&gt;&lt;div&gt;&amp;nbsp;network 192.168.115.0&lt;/div&gt;&lt;div&gt;&amp;nbsp;network 192.168.118.0&lt;/div&gt;&lt;div&gt;&amp;nbsp;network 192.168.129.0&lt;/div&gt;&lt;/div&gt;" style="text;html=1;fillColor=none;align=left;verticalAlign=middle;whiteSpace=wrap;rounded=0;strokeColor=#000000;" parent="1" vertex="1">
          <mxGeometry x="990" y="-340" width="420" height="370" as="geometry" />
        </mxCell>
        <mxCell id="ZMAOsJ2BBYR87SX-bPeo-80" value="&lt;div style=&quot;font-size: 30px&quot;&gt;&lt;div&gt;router eigrp 1503&lt;/div&gt;&lt;div&gt;&amp;nbsp;network 10.155.115.0 0.0.0.3&lt;/div&gt;&lt;div&gt;&amp;nbsp;network 10.165.115.0 0.0.0.3&lt;/div&gt;&lt;div&gt;&amp;nbsp;network 10.175.115.0 0.0.0.3&lt;/div&gt;&lt;div&gt;&amp;nbsp;network 10.185.115.0 0.0.0.3&lt;/div&gt;&lt;div&gt;&amp;nbsp;network 10.195.115.0 0.0.0.3&lt;/div&gt;&lt;div&gt;&amp;nbsp;network 192.168.101.0&lt;/div&gt;&lt;div&gt;&amp;nbsp;network 192.168.103.0&lt;/div&gt;&lt;div&gt;&amp;nbsp;network 192.168.104.0&lt;/div&gt;&lt;div&gt;&amp;nbsp;network 192.168.117.0&lt;/div&gt;&lt;/div&gt;" style="text;html=1;fillColor=none;align=left;verticalAlign=middle;whiteSpace=wrap;rounded=0;strokeColor=#000000;" parent="1" vertex="1">
          <mxGeometry x="-710" y="-360" width="450" height="380" as="geometry" />
        </mxCell>
        <mxCell id="ZMAOsJ2BBYR87SX-bPeo-81" value="&lt;div style=&quot;font-size: 30px&quot;&gt;&lt;div&gt;router eigrp 1003&lt;/div&gt;&lt;div&gt;&amp;nbsp;network 10.154.111.0 0.0.0.3&lt;/div&gt;&lt;div&gt;&amp;nbsp;network 10.164.111.0 0.0.0.3&lt;/div&gt;&lt;div&gt;&amp;nbsp;network 10.174.111.0 0.0.0.3&lt;/div&gt;&lt;div&gt;&amp;nbsp;network 10.184.111.0 0.0.0.3&lt;/div&gt;&lt;div&gt;&amp;nbsp;network 192.168.101.0&lt;/div&gt;&lt;div&gt;&amp;nbsp;network 192.168.103.0&lt;/div&gt;&lt;div&gt;&amp;nbsp;network 192.168.104.0&lt;/div&gt;&lt;div&gt;&amp;nbsp;network 192.168.117.0&lt;/div&gt;&lt;/div&gt;" style="text;html=1;fillColor=none;align=left;verticalAlign=middle;whiteSpace=wrap;rounded=0;strokeColor=#000000;" parent="1" vertex="1">
          <mxGeometry x="-825" y="170" width="420" height="330" as="geometry" />
        </mxCell>
        <mxCell id="22ynst1UL7vFinpxPaT7-11" style="edgeStyle=orthogonalEdgeStyle;rounded=0;orthogonalLoop=1;jettySize=auto;html=1;exitX=0.5;exitY=1;exitDx=0;exitDy=0;entryX=0.667;entryY=0.885;entryDx=0;entryDy=0;entryPerimeter=0;endArrow=none;endFill=0;fontSize=19;" edge="1" parent="1" source="ZMAOsJ2BBYR87SX-bPeo-62" target="ZMAOsJ2BBYR87SX-bPeo-68">
          <mxGeometry relative="1" as="geometry" />
        </mxCell>
        <mxCell id="ZMAOsJ2BBYR87SX-bPeo-62" value="&lt;font style=&quot;font-size: 20px&quot;&gt;&lt;span&gt;10.191.115.1/30&lt;/span&gt;&lt;br&gt;&lt;span&gt;Tunnel 1159&lt;/span&gt;&lt;br&gt;&lt;/font&gt;" style="text;html=1;align=center;verticalAlign=middle;whiteSpace=wrap;rounded=0;strokeColor=#000000;fillColor=#ffffff;" parent="1" vertex="1">
          <mxGeometry x="492.5" y="541.5" width="165" height="58.5" as="geometry" />
        </mxCell>
        <mxCell id="22ynst1UL7vFinpxPaT7-8" value="Layer 2 Channel" style="text;html=1;align=center;verticalAlign=middle;whiteSpace=wrap;rounded=0;fontSize=19;strokeColor=#000000;fillColor=#ffffff;" vertex="1" parent="1">
          <mxGeometry x="235" y="-122.5" width="175" height="20" as="geometry" />
        </mxCell>
        <mxCell id="22ynst1UL7vFinpxPaT7-10" value="Layer 3 Channel" style="text;html=1;align=center;verticalAlign=middle;whiteSpace=wrap;rounded=0;fontSize=19;strokeColor=#000000;fillColor=#ffffff;" vertex="1" parent="1">
          <mxGeometry x="245" y="-43.5" width="175" height="20" as="geometry" />
        </mxCell>
        <mxCell id="22ynst1UL7vFinpxPaT7-12" value="Layer 2 Channel" style="text;html=1;align=center;verticalAlign=middle;whiteSpace=wrap;rounded=0;fontSize=19;strokeColor=#000000;fillColor=#ffffff;" vertex="1" parent="1">
          <mxGeometry x="1070" y="400" width="150" height="20" as="geometry" />
        </mxCell>
        <mxCell id="22ynst1UL7vFinpxPaT7-13" value="Layer 3 Channel" style="text;html=1;align=center;verticalAlign=middle;whiteSpace=wrap;rounded=0;fontSize=19;strokeColor=#000000;fillColor=#ffffff;" vertex="1" parent="1">
          <mxGeometry x="490.25" y="340" width="175" height="20" as="geometry" />
        </mxCell>
        <mxCell id="22ynst1UL7vFinpxPaT7-14" value="Layer 3 Channel" style="text;html=1;align=center;verticalAlign=middle;whiteSpace=wrap;rounded=0;fontSize=19;strokeColor=#000000;fillColor=#ffffff;" vertex="1" parent="1">
          <mxGeometry x="86" y="340" width="175" height="20" as="geometry" />
        </mxCell>
        <mxCell id="22ynst1UL7vFinpxPaT7-15" style="edgeStyle=orthogonalEdgeStyle;rounded=0;orthogonalLoop=1;jettySize=auto;html=1;exitX=0.5;exitY=0;exitDx=0;exitDy=0;entryX=0.5;entryY=1;entryDx=0;entryDy=0;endArrow=none;endFill=0;" edge="1" parent="1" source="ZMAOsJ2BBYR87SX-bPeo-59" target="22ynst1UL7vFinpxPaT7-14">
          <mxGeometry relative="1" as="geometry">
            <mxPoint x="175" y="420" as="sourcePoint" />
            <mxPoint x="50" y="277.5" as="targetPoint" />
          </mxGeometry>
        </mxCell>
        <mxCell id="22ynst1UL7vFinpxPaT7-16" value="Layer 2 Channel" style="text;html=1;align=center;verticalAlign=middle;whiteSpace=wrap;rounded=0;fontSize=19;strokeColor=#000000;fillColor=#ffffff;" vertex="1" parent="1">
          <mxGeometry x="-405" y="540" width="175" height="20" as="geometry" />
        </mxCell>
        <mxCell id="22ynst1UL7vFinpxPaT7-18" value="Layer 2" style="text;html=1;align=center;verticalAlign=middle;whiteSpace=wrap;rounded=0;fontSize=20;strokeColor=#000000;fillColor=#ffffff;" vertex="1" parent="1">
          <mxGeometry x="-241" y="385" width="110" height="35" as="geometry" />
        </mxCell>
        <mxCell id="22ynst1UL7vFinpxPaT7-19" value="Layer 2" style="text;html=1;align=center;verticalAlign=middle;whiteSpace=wrap;rounded=0;fontSize=20;strokeColor=#000000;fillColor=#ffffff;" vertex="1" parent="1">
          <mxGeometry x="-246" y="-10" width="110" height="35" as="geometry" />
        </mxCell>
        <mxCell id="22ynst1UL7vFinpxPaT7-21" value="Layer 2" style="text;html=1;align=center;verticalAlign=middle;whiteSpace=wrap;rounded=0;fontSize=20;strokeColor=#000000;fillColor=#ffffff;" vertex="1" parent="1">
          <mxGeometry x="820" y="-116.5" width="110" height="35" as="geometry" />
        </mxCell>
        <mxCell id="22ynst1UL7vFinpxPaT7-22" value="Layer 2" style="text;html=1;align=center;verticalAlign=middle;whiteSpace=wrap;rounded=0;fontSize=20;strokeColor=#000000;fillColor=#ffffff;" vertex="1" parent="1">
          <mxGeometry x="983" y="311" width="110" height="35" as="geometry" />
        </mxCell>
        <mxCell id="22ynst1UL7vFinpxPaT7-31" style="edgeStyle=orthogonalEdgeStyle;rounded=0;orthogonalLoop=1;jettySize=auto;html=1;endArrow=none;endFill=0;fontSize=19;strokeColor=#3700CC;" edge="1" parent="1">
          <mxGeometry relative="1" as="geometry">
            <mxPoint x="147" y="-265" as="targetPoint" />
            <mxPoint x="43" y="-265" as="sourcePoint" />
          </mxGeometry>
        </mxCell>
      </root>
    </mxGraphModel>
  </diagram>
</mxfile>
